<svg width="22" height="25" viewBox="0 0 22 25" fill="none" xmlns="http://www.w3.org/2000/svg">
<path fill-rule="evenodd" clip-rule="evenodd" d="M20.0426 21.229C20.0426 21.9174 19.4826 22.4773 18.7943 22.4773H3.20561C2.51727 22.4773 1.95731 21.9173 1.95731 21.229V9.45934L11 2.42615L20.0426 9.45934V21.229ZM21.6221 8.20824L11.6008 0.413894C11.2474 0.139074 10.7526 0.139024 10.3991 0.413894L0.37783 8.20824C0.13944 8.39363 0 8.67873 0 8.98071V21.229C0 22.9966 1.43805 24.4347 3.20561 24.4347H18.7943C20.562 24.4347 22 22.9966 22 21.229V8.98071C22 8.67873 21.8605 8.39368 21.6221 8.20824H21.6221Z" fill="#BEBEBE"/>
</svg>
